#!OML:ASF G:\JayActor3\Patient Classification 1\Patient 1\Session 6\male.ASF
:FULLY-SPECIFIED
:DEGREES
1020
root 8.12648 16.2061 -2.50844 3.53406 -38.7103 -1.91077
lowerback 17.8783 3.27394 10.79
upperback 2.59766 6.41558 1.82075
thorax -6.19 2.86552 -5.51686
lowerneck -7.03559 3.93503 4.68678
upperneck 23.653 9.60692 -21.2446
head 9.962 2.81531 -7.40451
rclavicle 1.33186e-013 1.59028e-015
rhumerus -34.6901 47.1993 -64.8643
rradius 57.4576
rwrist 4.13934
rhand -20.547 -0.353251
rfingers 7.12502
rthumb 5.81168 -30.2535
lclavicle 1.33186e-013 1.59028e-015
lhumerus -43.3907 -23.0638 87.7492
lradius 43.4711
lwrist 25.0215
lhand -8.75823 5.95443
lfingers 7.12502
lthumb 17.1792 35.215
rfemur -20.0241 -14.5626 16.9357
rtibia 44.1287
rfoot -28.7549 -17.6358
rtoes 5.54395
lfemur -20.758 13.3186 -17.1989
ltibia 34.6507
lfoot -14.207 -0.630079
ltoes -4.75122
1021
root 8.14608 16.1919 -2.53024 3.57448 -38.6185 -1.80095
lowerback 18.1603 3.31277 10.8647
upperback 2.76136 6.50244 1.89781
thorax -6.14982 2.91152 -5.50776
lowerneck -7.05209 3.86181 4.67286
upperneck 23.5711 9.51627 -21.3541
head 9.92711 2.76875 -7.44962
rclavicle -1.00187e-013 -2.38542e-014
rhumerus -33.882 47.3098 -64.1535
rradius 57.6034
rwrist 4.06935
rhand -20.7002 -0.389725
rfingers 7.12502
rthumb 5.6638 -30.294
lclavicle -1.00187e-013 -2.38542e-014
lhumerus -43.5778 -22.9202 87.905
lradius 43.8027
lwrist 25.339
lhand -8.79748 5.89706
lfingers 7.12502
lthumb 17.1414 35.1609
rfemur -20.5056 -14.8461 16.8773
rtibia 44.5619
rfoot -28.6814 -17.5369
rtoes 5.36318
lfemur -21.2526 13.3799 -17.3666
ltibia 35.0355
lfoot -14.2277 -0.772691
ltoes -4.67915
1022
root 8.16651 16.177 -2.55219 3.62199 -38.5264 -1.699
lowerback 18.443 3.34403 10.943
upperback 2.93208 6.57994 1.98342
thorax -6.1039 2.95342 -5.4894
lowerneck -7.0699 3.79506 4.65317
upperneck 23.4826 9.43584 -21.4695
head 9.89203 2.72614 -7.49435
rclavicle 1.55052e-014 6.36111e-015
rhumerus -33.0388 47.4521 -63.4243
rradius 57.7234
rwrist 3.98908
rhand -20.902 -0.421246
rfingers 7.12502
rthumb 5.46901 -30.3307
lclavicle 1.55052e-014 6.36111e-015
lhumerus -43.7629 -22.7867 88.0845
lradius 44.1328
lwrist 25.6299
lhand -8.78417 5.85217
lfingers 7.12502
lthumb 17.1542 35.1149
rfemur -20.9925 -15.1447 16.8255
rtibia 44.9969
rfoot -28.6027 -17.4263
rtoes 5.18157
lfemur -21.7573 13.4335 -17.5307
ltibia 35.4316
lfoot -14.2543 -0.91219
ltoes -4.57667
1023
root 8.18782 16.1614 -2.57444 3.68514 -38.4294 -1.62421
lowerback 18.7367 3.36575 11.0448
upperback 3.10466 6.65129 2.07785
thorax -6.06068 2.99156 -5.47431
lowerneck -7.08 3.7367 4.62962
upperneck 23.385 9.36499 -21.5806
head 9.85325 2.68904 -7.53485
rclavicle 1.07344e-014 4.77083e-014
rhumerus -32.1736 47.6246 -62.687
rradius 57.8201
rwrist 3.90992
rhand -21.1413 -0.454506
rfingers 7.12502
rthumb 5.23791 -30.3698
lclavicle 1.07344e-014 4.77083e-014
lhumerus -43.9436 -22.6543 88.2775
lradius 44.4519
lwrist 25.8835
lhand -8.72988 5.82387
lfingers 7.12502
lthumb 17.2064 35.0821
rfemur -21.4798 -15.4584 16.797
rtibia 45.4322
rfoot -28.5174 -17.3105
rtoes 4.98455
lfemur -22.2714 13.4721 -17.6736
ltibia 35.8431
lfoot -14.2879 -1.04043
ltoes -4.47074
1024
root 8.20957 16.1452 -2.59728 3.76565 -38.3224 -1.56988
lowerback 19.0429 3.37933 11.1642
upperback 3.26978 6.71835 2.1763
thorax -6.03079 3.02606 -5.46534
lowerneck -7.0796 3.68554 4.61024
upperneck 23.2902 9.30223 -21.6841
head 9.81438 2.65725 -7.57241
rclavicle -7.31528e-014 -4.13472e-014
rhumerus -31.3067 47.8174 -61.9595
rradius 57.8918
rwrist 3.85536
rhand -21.3995 -0.473949
rfingers 7.12502
rthumb 4.98864 -30.3952
lclavicle -7.31528e-014 -4.13472e-014
lhumerus -44.1284 -22.5205 88.475
lradius 44.7547
lwrist 26.0869
lhand -8.60631 5.7677
lfingers 7.12502
lthumb 17.3254 35.0155
rfemur -21.9749 -15.7831 16.7904
rtibia 45.8699
rfoot -28.4336 -17.1919
rtoes 4.78445
lfemur -22.8038 13.5018 -17.8013
ltibia 36.2705
lfoot -14.3258 -1.16837
ltoes -4.35222
1025
root 8.23172 16.1284 -2.62078 3.86899 -38.2071 -1.5394
lowerback 19.3614 3.38377 11.3003
upperback 3.42364 6.7803 2.27872
thorax -6.01849 3.05612 -5.46197
lowerneck -7.06208 3.64146 4.60105
upperneck 23.1956 9.24634 -21.7831
head 9.77327 2.63098 -7.60942
rclavicle -4.41302e-014 3.18055e-015
rhumerus -30.4355 48.0253 -61.2429
rradius 57.9391
rwrist 3.83928
rhand -21.6368 -0.462638
rfingers 7.12502
rthumb 4.75944 -30.3892
lclavicle -4.41302e-014 3.18055e-015
lhumerus -44.3323 -22.3949 88.6804
lradius 45.0583
lwrist 26.2645
lhand -8.50289 5.73068
lfingers 7.12502
lthumb 17.4249 34.9697
rfemur -22.4846 -16.1159 16.811
rtibia 46.314
rfoot -28.3533 -17.0729
rtoes 4.58754
lfemur -23.3557 13.5309 -17.9114
ltibia 36.7085
lfoot -14.3644 -1.29846
ltoes -4.23935
1026
root 8.25333 16.1112 -2.64519 3.98347 -38.0897 -1.50362
lowerback 19.6799 3.38681 11.4164
upperback 3.56742 6.83822 2.3819
thorax -6.01978 3.08338 -5.44677
lowerneck -7.03578 3.60164 4.5955
upperneck 23.1098 9.19541 -21.8748
head 9.73405 2.60799 -7.64425
rclavicle 5.04913e-014 -2.8625e-014
rhumerus -29.5519 48.2277 -60.5303
rradius 57.9628
rwrist 3.86855
rhand -21.8123 -0.413303
rfingers 7.12502
rthumb 4.59 -30.3436
lclavicle 5.04913e-014 -2.8625e-014
lhumerus -44.5599 -22.2775 88.8965
lradius 45.3716
lwrist 26.434
lhand -8.41162 5.70744
lfingers 7.12502
lthumb 17.5127 34.9386
rfemur -23.0191 -16.4382 16.8398
rtibia 46.7687
rfoot -28.2826 -16.9692
rtoes 4.40764
lfemur -23.9291 13.5708 -18.028
ltibia 37.1507
lfoot -14.3996 -1.44021
ltoes -4.10973
1027
root 8.27376 16.0938 -2.67046 4.09143 -37.9743 -1.42225
lowerback 19.9828 3.39571 11.4772
upperback 3.70527 6.89108 2.47581
thorax -6.02503 3.10888 -5.40944
lowerneck -7.01005 3.56213 4.59338
upperneck 23.0357 9.14378 -21.9559
head 9.69843 2.58519 -7.67636
rclavicle 2.8625e-014 -2.06736e-014
rhumerus -28.6482 48.3996 -59.8201
rradius 57.9629
rwrist 3.93404
rhand -21.9027 -0.330051
rfingers 7.12502
rthumb 4.50272 -30.2622
lclavicle 2.8625e-014 -2.06736e-014
lhumerus -44.7958 -22.1605 89.1094
lradius 45.6879
lwrist 26.5916
lhand -8.38031 5.70947
lfingers 7.12502
lthumb 17.5429 34.938
rfemur -23.5899 -16.7451 16.8452
rtibia 47.239
rfoot -28.2258 -16.8812
rtoes 4.24394
lfemur -24.5258 13.6181 -18.1874
ltibia 37.5886
lfoot -14.4289 -1.58404
ltoes -3.99673
1028
root 8.29356 16.0762 -2.69614 4.20083 -37.8647 -1.32269
lowerback 20.2712 3.40942 11.5118
upperback 3.84581 6.94241 2.56621
thorax -6.0221 3.13478 -5.35983
lowerneck -6.99598 3.51806 4.58989
upperneck 22.9744 9.08603 -22.0277
head 9.6681 2.55877 -7.70599
rclavicle -2.94201e-014 -6.36111e-015
rhumerus -27.7193 48.5243 -59.1031
rradius 57.9441
rwrist 4.01463
rhand -21.9142 -0.234994
rfingers 7.12502
rthumb 4.49166 -30.1674
lclavicle -2.94201e-014 -6.36111e-015
lhumerus -45.0283 -22.0489 89.3187
lradius 46.0066
lwrist 26.7376
lhand -8.36704 5.72358
lfingers 7.12502
lthumb 17.5556 34.9509
rfemur -24.1841 -17.0338 16.8462
rtibia 47.7224
rfoot -28.1806 -16.8101
rtoes 4.08493
lfemur -25.1336 13.6791 -18.3647
ltibia 38.0188
lfoot -14.4498 -1.73723
ltoes -3.87541
1029
root 8.31264 16.0582 -2.72221 4.30015 -37.7611 -1.18687
lowerback 20.5423 3.42959 11.5107
upperback 3.99291 6.991 2.64758
thorax -6.00602 3.16114 -5.29814
lowerneck -6.99849 3.46772 4.57916
upperneck 22.9226 9.01886 -22.0843
head 9.64174 2.52708 -7.7298
rclavicle 2.3059e-014 -3.65764e-014
rhumerus -26.7678 48.5929 -58.3815
rradius 57.9087
rwrist 4.08373
rhand -21.8732 -0.146324
rfingers 7.12502
rthumb 4.53123 -30.0779
lclavicle 2.3059e-014 -3.65764e-014
lhumerus -45.2448 -21.9456 89.5159
lradius 46.3213
lwrist 26.8716
lhand -8.3934 5.76051
lfingers 7.12502
lthumb 17.5303 34.9901
rfemur -24.8006 -17.3054 16.8254
rtibia 48.2167
rfoot -28.1455 -16.7532
rtoes 3.92461
lfemur -25.7507 13.7446 -18.5763
ltibia 38.44
lfoot -14.4626 -1.89092
ltoes -3.78334
1030
root 8.33139 16.0398 -2.74858 4.38923 -37.6592 -1.03271
lowerback 20.813 3.45074 11.4988
upperback 4.14639 7.03695 2.72013
thorax -5.98284 3.18699 -5.23923
lowerneck -7.01409 3.40984 4.5618
upperneck 22.8757 8.93907 -22.1241
head 9.61638 2.48931 -7.74725
rclavicle 1.98785e-014 -2.06736e-014
rhumerus -25.8073 48.6025 -57.6711
rradius 57.8494
rwrist 4.12492
rhand -21.8288 -0.0657068
rfingers 7.12502
rthumb 4.57405 -29.9963
lclavicle 1.98785e-014 -2.06736e-014
lhumerus -45.4434 -21.8548 89.6965
lradius 46.6276
lwrist 26.9924
lhand -8.4181 5.78809
lfingers 7.12502
lthumb 17.5065 35.0198
rfemur -25.422 -17.5669 16.793
rtibia 48.7166
rfoot -28.1241 -16.6968
rtoes 3.77395
lfemur -26.3661 13.8011 -18.8035
ltibia 38.8542
lfoot -14.4682 -2.03994
ltoes -3.68488
1031
root 8.35057 16.0209 -2.77495 4.47789 -37.5604 -0.887589
lowerback 21.0921 3.46975 11.5079
upperback 4.30805 7.08406 2.78902
thorax -5.95123 3.21366 -5.19617
lowerneck -7.03931 3.34516 4.53594
upperneck 22.8267 8.84675 -22.1472
head 9.58877 2.44594 -7.75757
rclavicle -5.24792e-014 3.33958e-014
rhumerus -24.8438 48.5677 -56.9686
rradius 57.7682
rwrist 4.12768
rhand -21.8156 -0.00859126
rfingers 7.12502
rthumb 4.58684 -29.9389
lclavicle -5.24792e-014 3.33958e-014
lhumerus -45.6209 -21.7898 89.8681
lradius 46.9223
lwrist 27.1028
lhand -8.44762 5.80119
lfingers 7.12502
lthumb 17.4781 35.0355
rfemur -26.0374 -17.8217 16.7669
rtibia 49.2172
rfoot -28.1104 -16.6326
rtoes 3.63083
lfemur -26.972 13.8421 -19.0223
ltibia 39.2633
lfoot -14.47 -2.1714
ltoes -3.61357
1032
root 8.36957 16.0017 -2.80139 4.54917 -37.4602 -0.727026
lowerback 21.3793 3.48838 11.5115
upperback 4.47761 7.12906 2.85312
thorax -5.91493 3.23979 -5.15521
lowerneck -7.07029 3.2766 4.50118
upperneck 22.7743 8.74668 -22.1568
head 9.55872 2.39921 -7.76133
rclavicle 1.19271e-014 -6.20208e-014
rhumerus -23.8825 48.5029 -56.2758
rradius 57.6631
rwrist 4.0985
rhand -21.833 0.0596098
rfingers 7.12502
rthumb 4.56999 -29.8711
lclavicle 1.19271e-014 -6.20208e-014
lhumerus -45.7737 -21.7281 90.0236
lradius 47.1911
lwrist 27.1833
lhand -8.44438 5.77304
lfingers 7.12502
lthumb 17.4812 35.007
rfemur -26.6428 -18.0768 16.7255
rtibia 49.719
rfoot -28.104 -16.5594
rtoes 3.48425
lfemur -27.5652 13.8672 -19.2529
ltibia 39.6676
lfoot -14.471 -2.291
ltoes -3.5568
1033
root 8.389 15.9825 -2.82776 4.62216 -37.3568 -0.574342
lowerback 21.6742 3.50236 11.5288
upperback 4.6502 7.17139 2.91792
thorax -5.87752 3.26441 -5.12087
lowerneck -7.0977 3.20559 4.46921
upperneck 22.7127 8.64075 -22.1663
head 9.52385 2.35072 -7.7655
rclavicle -5.1684e-014 -1.59028e-015
rhumerus -22.9222 48.4219 -55.5892
rradius 57.5334
rwrist 4.04706
rhand -21.878 0.167957
rfingers 7.12502
rthumb 4.52662 -29.7637
lclavicle -5.1684e-014 -1.59028e-015
lhumerus -45.9338 -21.6989 90.1838
lradius 47.4719
lwrist 27.2813
lhand -8.44565 5.7296
lfingers 7.12502
lthumb 17.48 34.9637
rfemur -27.2482 -18.3364 16.6892
rtibia 50.2237
rfoot -28.09 -16.492
rtoes 3.29907
lfemur -28.1514 13.8801 -19.4773
ltibia 40.067
lfoot -14.4715 -2.40013
ltoes -3.5148
1034
root 8.40854 15.963 -2.85408 4.69614 -37.2527 -0.420863
lowerback 21.9724 3.51339 11.5412
upperback 4.82264 7.20936 2.98653
thorax -5.8432 3.28661 -5.0792
lowerneck -7.1174 3.13637 4.43662
upperneck 22.6445 8.53671 -22.179
head 9.48562 2.30356 -7.77018
rclavicle -1.03368e-014 3.97569e-014
rhumerus -21.9591 48.3405 -54.9023
rradius 57.381
rwrist 4.00596
rhand -21.9398 0.32008
rfingers 7.12502
rthumb 4.46687 -29.6128
lclavicle -1.03368e-014 3.97569e-014
lhumerus -46.101 -21.6647 90.3442
lradius 47.7561
lwrist 27.3849
lhand -8.43546 5.69774
lfingers 7.12502
lthumb 17.4898 34.931
rfemur -27.8583 -18.5971 16.6539
rtibia 50.7339
rfoot -28.0739 -16.4276
rtoes 3.10023
lfemur -28.7345 13.878 -19.7019
ltibia 40.4625
lfoot -14.4728 -2.50026
ltoes -3.44672
